# xmcd
#
# Track frame offsets: 
#        150
#        12665
#        25540
#        40467
#        52745
#        64515
#        76455
#        89037
#        99752
#        110918
#
# Disc length: 1614 seconds
#
# Revision: 2
# Processed by: cddbd v1.5.2PL0 Copyright (c) Steve Scherf et al.
# Submitted via: ExactAudioCopy v0.95b4
#
DISCID=78064c0a
DTITLE=Johnny Cash - Original American Classics: I Walk The Line
DYEAR=2005
DGENRE=Country
TTITLE0=I Walk The Line
TTITLE1=Folsom Prison Blues
TTITLE2=There Ain't No Good Chain Gang (With Waylon Jennings)
TTITLE3=Home Of The Blues
TTITLE4=Big River
TTITLE5=So Doggone Lonesome
TTITLE6=Next In Line
TTITLE7=Busted (With The Carter Family)
TTITLE8=Cry, Cry, Cry
TTITLE9=Rock Island Line
EXTD=YEAR: 2005
EXTT0=
EXTT1=
EXTT2=
EXTT3=
EXTT4=
EXTT5=
EXTT6=
EXTT7=
EXTT8=
EXTT9=
PLAYORDER=
